<svg width="130" height="52" viewBox="0 0 130 52" fill="none" xmlns="http://www.w3.org/2000/svg">
<g clip-path="url(#clip0_206_15)">
<g clip-path="url(#clip1_206_15)">
<path d="M6.75 8C6.75 6.80653 7.22411 5.66194 8.06802 4.81802C8.91193 3.97411 10.0565 3.5 11.25 3.5H15.75C16.569 3.5 17.3385 3.71825 18 4.103C18.6837 3.70701 19.4599 3.49897 20.25 3.5H24.75C26.3858 3.5 27.819 4.373 28.6065 5.68025C29.079 5.30225 29.6325 5.01425 30.2535 4.84775L34.6005 3.6845C35.1714 3.53138 35.7668 3.4922 36.3528 3.56922C36.9388 3.64624 37.5039 3.83795 38.0158 4.13339C38.5277 4.42883 38.9764 4.82221 39.3362 5.29108C39.6961 5.75995 39.96 6.29511 40.113 6.866L49.428 41.6398C49.5811 42.2106 49.6203 42.806 49.5433 43.392C49.4663 43.978 49.2746 44.5431 48.9791 45.055C48.6837 45.5669 48.2903 46.0156 47.8214 46.3755C47.3526 46.7353 46.8174 46.9993 46.2465 47.1523L41.8995 48.3155C41.3286 48.4686 40.7332 48.5078 40.1472 48.4308C39.5612 48.3538 38.9961 48.1621 38.4842 47.8666C37.9723 47.5712 37.5236 47.1778 37.1638 46.7089C36.804 46.2401 36.54 45.7049 36.387 45.134L29.25 18.4918V44C29.25 45.1935 28.7759 46.3381 27.932 47.182C27.0881 48.0259 25.9435 48.5 24.75 48.5H20.25C19.4599 48.501 18.6837 48.293 18 47.897C17.3163 48.293 16.5401 48.501 15.75 48.5H11.25C10.0565 48.5 8.91193 48.0259 8.06802 47.182C7.22411 46.3381 6.75 45.1935 6.75 44V8Z" fill="#8257E6"/>
</g>
<path d="M69.457 23.4688V26H60.8789V23.4688H69.457ZM61.8516 8.9375V26H58.6289V8.9375H61.8516ZM74.6602 13.3203V26H71.5547V13.3203H74.6602ZM71.3438 10.0039C71.3438 9.54297 71.5 9.16016 71.8125 8.85547C72.1328 8.55078 72.5625 8.39844 73.1016 8.39844C73.6406 8.39844 74.0664 8.55078 74.3789 8.85547C74.6992 9.16016 74.8594 9.54297 74.8594 10.0039C74.8594 10.457 74.6992 10.8359 74.3789 11.1406C74.0664 11.4453 73.6406 11.5977 73.1016 11.5977C72.5625 11.5977 72.1328 11.4453 71.8125 11.1406C71.5 10.8359 71.3438 10.457 71.3438 10.0039ZM81.8203 23.6562L84.7734 13.3203H88.0078L83.6602 26H81.6914L81.8203 23.6562ZM79.6641 13.3203L82.6523 23.6797L82.7578 26H80.7773L76.418 13.3203H79.6641ZM92.7305 15.9102V26H89.6367V13.3203H92.5664L92.7305 15.9102ZM96.5859 13.2383L96.5391 16.1211C96.3672 16.0898 96.1719 16.0664 95.9531 16.0508C95.7422 16.0352 95.543 16.0273 95.3555 16.0273C94.8789 16.0273 94.4609 16.0938 94.1016 16.2266C93.7422 16.3516 93.4414 16.5352 93.1992 16.7773C92.9648 17.0195 92.7852 17.3164 92.6602 17.668C92.5352 18.0117 92.4648 18.4023 92.4492 18.8398L91.7812 18.7578C91.7812 17.9531 91.8633 17.207 92.0273 16.5195C92.1914 15.832 92.4297 15.2305 92.7422 14.7148C93.0547 14.1992 93.4453 13.8008 93.9141 13.5195C94.3906 13.2305 94.9375 13.0859 95.5547 13.0859C95.7266 13.0859 95.9102 13.1016 96.1055 13.1328C96.3086 13.1562 96.4688 13.1914 96.5859 13.2383ZM105.832 22.9883V13.3203H108.949V26H106.02L105.832 22.9883ZM106.23 20.3633L107.191 20.3398C107.191 21.1914 107.098 21.9766 106.91 22.6953C106.723 23.4141 106.43 24.0391 106.031 24.5703C105.641 25.0938 105.145 25.5039 104.543 25.8008C103.941 26.0898 103.23 26.2344 102.41 26.2344C101.785 26.2344 101.215 26.1484 100.699 25.9766C100.184 25.7969 99.7383 25.5195 99.3633 25.1445C98.9961 24.7617 98.7109 24.2734 98.5078 23.6797C98.3047 23.0781 98.2031 22.3555 98.2031 21.5117V13.3203H101.297V21.5352C101.297 21.957 101.344 22.3086 101.438 22.5898C101.539 22.8711 101.676 23.1016 101.848 23.2812C102.027 23.4531 102.234 23.5781 102.469 23.6562C102.711 23.7266 102.969 23.7617 103.242 23.7617C103.992 23.7617 104.582 23.6133 105.012 23.3164C105.449 23.0117 105.762 22.6055 105.949 22.0977C106.137 21.582 106.23 21.0039 106.23 20.3633ZM119.238 22.9883V13.3203H122.355V26H119.426L119.238 22.9883ZM119.637 20.3633L120.598 20.3398C120.598 21.1914 120.504 21.9766 120.316 22.6953C120.129 23.4141 119.836 24.0391 119.438 24.5703C119.047 25.0938 118.551 25.5039 117.949 25.8008C117.348 26.0898 116.637 26.2344 115.816 26.2344C115.191 26.2344 114.621 26.1484 114.105 25.9766C113.59 25.7969 113.145 25.5195 112.77 25.1445C112.402 24.7617 112.117 24.2734 111.914 23.6797C111.711 23.0781 111.609 22.3555 111.609 21.5117V13.3203H114.703V21.5352C114.703 21.957 114.75 22.3086 114.844 22.5898C114.945 22.8711 115.082 23.1016 115.254 23.2812C115.434 23.4531 115.641 23.5781 115.875 23.6562C116.117 23.7266 116.375 23.7617 116.648 23.7617C117.398 23.7617 117.988 23.6133 118.418 23.3164C118.855 23.0117 119.168 22.6055 119.355 22.0977C119.543 21.582 119.637 21.0039 119.637 20.3633Z" fill="white"/>
<path d="M64.622 41.6314C64.622 41.4246 64.576 41.2334 64.4839 41.0576C64.3969 40.8767 64.2153 40.7139 63.939 40.5691C63.6678 40.4192 63.2585 40.29 62.711 40.1814C62.2505 40.0832 61.8335 39.9669 61.46 39.8325C61.0916 39.6981 60.777 39.5353 60.516 39.344C60.2602 39.1527 60.0632 38.9279 59.9251 38.6694C59.7869 38.411 59.7179 38.1086 59.7179 37.7622C59.7179 37.4314 59.7895 37.1187 59.9328 36.824C60.0811 36.5294 60.2884 36.2683 60.5544 36.0409C60.8256 35.8134 61.1505 35.6351 61.5291 35.5059C61.9077 35.3766 62.3298 35.312 62.7954 35.312C63.4606 35.312 64.0285 35.4309 64.4992 35.6687C64.97 35.9065 65.3307 36.2244 65.5814 36.6224C65.8321 37.0153 65.9574 37.4521 65.9574 37.9328H64.5376C64.5376 37.7002 64.4685 37.4753 64.3304 37.2582C64.1974 37.0359 64.0004 36.8524 63.7394 36.7077C63.4836 36.563 63.1689 36.4906 62.7954 36.4906C62.4015 36.4906 62.0817 36.5526 61.8361 36.6767C61.5956 36.7956 61.4191 36.9481 61.3065 37.1342C61.1991 37.3203 61.1454 37.5167 61.1454 37.7235C61.1454 37.8785 61.171 38.0181 61.2221 38.1422C61.2784 38.2611 61.3756 38.3722 61.5138 38.4756C61.6519 38.5738 61.8463 38.6668 62.097 38.7547C62.3477 38.8426 62.6675 38.9305 63.0564 39.0183C63.7369 39.1734 64.2971 39.3595 64.7372 39.5766C65.1772 39.7937 65.5046 40.0599 65.7195 40.3753C65.9344 40.6906 66.0419 41.0731 66.0419 41.5228C66.0419 41.8898 65.9651 42.2258 65.8116 42.5308C65.6632 42.8358 65.4458 43.0994 65.1593 43.3217C64.8779 43.5388 64.5402 43.7094 64.1462 43.8335C63.7573 43.9524 63.3199 44.0118 62.8338 44.0118C62.1022 44.0118 61.4831 43.88 60.9765 43.6164C60.47 43.3527 60.0863 43.0116 59.8253 42.5929C59.5644 42.1742 59.4339 41.7322 59.4339 41.267H60.8614C60.8819 41.6598 60.9944 41.9726 61.1991 42.2052C61.4038 42.4326 61.6545 42.5954 61.9512 42.6937C62.248 42.7867 62.5422 42.8332 62.8338 42.8332C63.2227 42.8332 63.5476 42.7815 63.8085 42.6782C64.0746 42.5748 64.2767 42.4326 64.4148 42.2517C64.553 42.0708 64.622 41.864 64.622 41.6314Z" fill="white"/>
<path d="M69.3267 31.9468V43.8567H67.9068V31.9468H69.3267ZM68.989 39.344L68.398 39.3207C68.4031 38.747 68.4876 38.2171 68.6513 37.7312C68.815 37.2401 69.0453 36.8137 69.342 36.4518C69.6388 36.09 69.9918 35.8108 70.4011 35.6144C70.8156 35.4128 71.2735 35.312 71.7749 35.312C72.1842 35.312 72.5526 35.3689 72.8801 35.4826C73.2075 35.5911 73.4864 35.7669 73.7166 36.0099C73.952 36.2528 74.1311 36.5681 74.2539 36.9558C74.3767 37.3383 74.4381 37.8062 74.4381 38.3593V43.8567H73.0105V38.3438C73.0105 37.9044 72.9466 37.5529 72.8187 37.2892C72.6908 37.0204 72.504 36.8266 72.2584 36.7077C72.0128 36.5836 71.711 36.5216 71.3528 36.5216C70.9998 36.5216 70.6774 36.5966 70.3858 36.7465C70.0993 36.8964 69.8511 37.1031 69.6413 37.3668C69.4367 37.6304 69.2755 37.9328 69.1578 38.274C69.0453 38.61 68.989 38.9667 68.989 39.344Z" fill="white"/>
<path d="M76.1879 39.755V39.5766C76.1879 38.9718 76.2749 38.411 76.4488 37.894C76.6228 37.3719 76.8735 36.9196 77.201 36.5371C77.5284 36.1494 77.925 35.8496 78.3906 35.6377C78.8562 35.4206 79.378 35.312 79.9562 35.312C80.5395 35.312 81.0639 35.4206 81.5295 35.6377C82.0002 35.8496 82.3993 36.1494 82.7268 36.5371C83.0594 36.9196 83.3126 37.3719 83.4866 37.894C83.6606 38.411 83.7475 38.9718 83.7475 39.5766V39.755C83.7475 40.3598 83.6606 40.9206 83.4866 41.4375C83.3126 41.9545 83.0594 42.4068 82.7268 42.7945C82.3993 43.177 82.0028 43.4768 81.5372 43.6939C81.0767 43.9058 80.5548 44.0118 79.9716 44.0118C79.3883 44.0118 78.8638 43.9058 78.3982 43.6939C77.9326 43.4768 77.5335 43.177 77.201 42.7945C76.8735 42.4068 76.6228 41.9545 76.4488 41.4375C76.2749 40.9206 76.1879 40.3598 76.1879 39.755ZM77.6077 39.5766V39.755C77.6077 40.1737 77.6563 40.5691 77.7535 40.9413C77.8508 41.3083 77.9966 41.634 78.191 41.9183C78.3906 42.2026 78.6387 42.4274 78.9355 42.5929C79.2322 42.7531 79.5776 42.8332 79.9716 42.8332C80.3604 42.8332 80.7007 42.7531 80.9923 42.5929C81.2891 42.4274 81.5346 42.2026 81.7291 41.9183C81.9235 41.634 82.0693 41.3083 82.1665 40.9413C82.2689 40.5691 82.32 40.1737 82.32 39.755V39.5766C82.32 39.1631 82.2689 38.7728 82.1665 38.4058C82.0693 38.0336 81.9209 37.7054 81.7214 37.4211C81.527 37.1316 81.2814 36.9041 80.9846 36.7387C80.693 36.5733 80.3502 36.4906 79.9562 36.4906C79.5673 36.4906 79.2245 36.5733 78.9278 36.7387C78.6361 36.9041 78.3906 37.1316 78.191 37.4211C77.9966 37.7054 77.8508 38.0336 77.7535 38.4058C77.6563 38.7728 77.6077 39.1631 77.6077 39.5766Z" fill="white"/>
<path d="M86.9479 37.0799V47.0823H85.5204V35.4671H86.8251L86.9479 37.0799ZM92.5428 39.5921V39.755C92.5428 40.3649 92.4712 40.931 92.3279 41.453C92.1847 41.97 91.9749 42.4197 91.6986 42.8022C91.4274 43.1847 91.0923 43.482 90.6932 43.6939C90.2941 43.9058 89.8362 44.0118 89.3194 44.0118C88.7924 44.0118 88.3268 43.9239 87.9226 43.7482C87.5184 43.5724 87.1756 43.3166 86.8942 42.9806C86.6128 42.6446 86.3877 42.2414 86.2188 41.771C86.0551 41.3006 85.9425 40.7707 85.8811 40.1814V39.313C85.9425 38.6927 86.0576 38.137 86.2265 37.6459C86.3953 37.1548 86.6179 36.7361 86.8942 36.3898C87.1756 36.0383 87.5158 35.7721 87.9149 35.5911C88.314 35.4051 88.7745 35.312 89.2964 35.312C89.8183 35.312 90.2813 35.4154 90.6855 35.6222C91.0897 35.8238 91.43 36.1132 91.7063 36.4906C91.9826 36.8679 92.1898 37.3203 92.3279 37.8475C92.4712 38.3696 92.5428 38.9511 92.5428 39.5921ZM91.1153 39.755V39.5921C91.1153 39.1734 91.0718 38.7806 90.9848 38.4135C90.8979 38.0414 90.7623 37.7157 90.5781 37.4366C90.399 37.1523 90.1687 36.93 89.8873 36.7697C89.6059 36.6043 89.2708 36.5216 88.8819 36.5216C88.5238 36.5216 88.2117 36.5836 87.9456 36.7077C87.6847 36.8318 87.4621 36.9998 87.2779 37.2117C87.0937 37.4185 86.9428 37.6563 86.8251 37.9251C86.7125 38.1887 86.6281 38.4627 86.5718 38.747V40.7552C86.6742 41.117 86.8174 41.4582 87.0016 41.7787C87.1858 42.094 87.4314 42.3499 87.7384 42.5463C88.0454 42.7376 88.4317 42.8332 88.8973 42.8332C89.281 42.8332 89.6111 42.7531 89.8873 42.5929C90.1687 42.4274 90.399 42.2026 90.5781 41.9183C90.7623 41.634 90.8979 41.3083 90.9848 40.9413C91.0718 40.5691 91.1153 40.1737 91.1153 39.755Z" fill="white"/>
</g>
<defs>
<clipPath id="clip0_206_15">
<rect width="129.74" height="52" fill="white"/>
</clipPath>
<clipPath id="clip1_206_15">
<rect width="54" height="54" fill="white" transform="translate(0 -1)"/>
</clipPath>
</defs>
</svg>
