<svg width="130" height="52" viewBox="0 0 130 52" fill="none" xmlns="http://www.w3.org/2000/svg">
<g clip-path="url(#clip0_206_15)">
<g clip-path="url(#clip1_206_15)">
<path d="M6.75 8C6.75 6.80653 7.22411 5.66194 8.06802 4.81802C8.91193 3.97411 10.0565 3.5 11.25 3.5H15.75C16.569 3.5 17.3385 3.71825 18 4.103C18.6837 3.70701 19.4599 3.49897 20.25 3.5H24.75C26.3858 3.5 27.819 4.373 28.6065 5.68025C29.079 5.30225 29.6325 5.01425 30.2535 4.84775L34.6005 3.6845C35.1714 3.53138 35.7668 3.4922 36.3528 3.56922C36.9388 3.64624 37.5039 3.83795 38.0158 4.13339C38.5277 4.42883 38.9764 4.82221 39.3362 5.29108C39.6961 5.75995 39.96 6.29511 40.113 6.866L49.428 41.6398C49.5811 42.2106 49.6203 42.806 49.5433 43.392C49.4663 43.978 49.2746 44.5431 48.9791 45.055C48.6837 45.5669 48.2903 46.0156 47.8214 46.3755C47.3526 46.7353 46.8174 46.9993 46.2465 47.1523L41.8995 48.3155C41.3286 48.4686 40.7332 48.5078 40.1472 48.4308C39.5612 48.3538 38.9961 48.1621 38.4842 47.8666C37.9723 47.5712 37.5236 47.1778 37.1638 46.7089C36.804 46.2401 36.54 45.7049 36.387 45.134L29.25 18.4918V44C29.25 45.1935 28.7759 46.3381 27.932 47.182C27.0881 48.0259 25.9435 48.5 24.75 48.5H20.25C19.4599 48.501 18.6837 48.293 18 47.897C17.3163 48.293 16.5401 48.501 15.75 48.5H11.25C10.0565 48.5 8.91193 48.0259 8.06802 47.182C7.22411 46.3381 6.75 45.1935 6.75 44V8Z" fill="#FFD56F"/>
</g>
<path d="M65.168 18.3945H60.8086L60.7852 16.1211H64.5234C65.1641 16.1211 65.6992 16.0312 66.1289 15.8516C66.5586 15.6719 66.8828 15.4102 67.1016 15.0664C67.3281 14.7227 67.4414 14.3047 67.4414 13.8125C67.4414 13.2656 67.3359 12.8203 67.125 12.4766C66.9219 12.1328 66.6016 11.8828 66.1641 11.7266C65.7266 11.5625 65.1719 11.4805 64.5 11.4805H61.8516V26H58.6289V8.9375H64.5C65.4688 8.9375 66.332 9.03125 67.0898 9.21875C67.8555 9.39844 68.5039 9.67969 69.0352 10.0625C69.5664 10.4453 69.9688 10.9258 70.2422 11.5039C70.5234 12.082 70.6641 12.7695 70.6641 13.5664C70.6641 14.2695 70.5 14.918 70.1719 15.5117C69.8516 16.0977 69.3555 16.5742 68.6836 16.9414C68.0195 17.3086 67.1758 17.5195 66.1523 17.5742L65.168 18.3945ZM65.0273 26H59.8594L61.207 23.4688H65.0273C65.668 23.4688 66.1953 23.3633 66.6094 23.1523C67.0312 22.9414 67.3438 22.6523 67.5469 22.2852C67.7578 21.9102 67.8633 21.4805 67.8633 20.9961C67.8633 20.4648 67.7695 20.0039 67.582 19.6133C67.4023 19.2227 67.1133 18.9219 66.7148 18.7109C66.3242 18.5 65.8086 18.3945 65.168 18.3945H61.8164L61.8398 16.1211H66.1055L66.8438 17C67.8281 17.0078 68.6289 17.2031 69.2461 17.5859C69.8711 17.9688 70.332 18.4609 70.6289 19.0625C70.9258 19.6641 71.0742 20.3125 71.0742 21.0078C71.0742 22.1016 70.8359 23.0195 70.3594 23.7617C69.8906 24.5039 69.2031 25.0625 68.2969 25.4375C67.3984 25.8125 66.3086 26 65.0273 26ZM81.1758 22.9883V13.3203H84.293V26H81.3633L81.1758 22.9883ZM81.5742 20.3633L82.5352 20.3398C82.5352 21.1914 82.4414 21.9766 82.2539 22.6953C82.0664 23.4141 81.7734 24.0391 81.375 24.5703C80.9844 25.0938 80.4883 25.5039 79.8867 25.8008C79.2852 26.0898 78.5742 26.2344 77.7539 26.2344C77.1289 26.2344 76.5586 26.1484 76.043 25.9766C75.5273 25.7969 75.082 25.5195 74.707 25.1445C74.3398 24.7617 74.0547 24.2734 73.8516 23.6797C73.6484 23.0781 73.5469 22.3555 73.5469 21.5117V13.3203H76.6406V21.5352C76.6406 21.957 76.6875 22.3086 76.7812 22.5898C76.8828 22.8711 77.0195 23.1016 77.1914 23.2812C77.3711 23.4531 77.5781 23.5781 77.8125 23.6562C78.0547 23.7266 78.3125 23.7617 78.5859 23.7617C79.3359 23.7617 79.9258 23.6133 80.3555 23.3164C80.793 23.0117 81.1055 22.6055 81.293 22.0977C81.4805 21.582 81.5742 21.0039 81.5742 20.3633ZM94.582 22.9883V13.3203H97.6992V26H94.7695L94.582 22.9883ZM94.9805 20.3633L95.9414 20.3398C95.9414 21.1914 95.8477 21.9766 95.6602 22.6953C95.4727 23.4141 95.1797 24.0391 94.7812 24.5703C94.3906 25.0938 93.8945 25.5039 93.293 25.8008C92.6914 26.0898 91.9805 26.2344 91.1602 26.2344C90.5352 26.2344 89.9648 26.1484 89.4492 25.9766C88.9336 25.7969 88.4883 25.5195 88.1133 25.1445C87.7461 24.7617 87.4609 24.2734 87.2578 23.6797C87.0547 23.0781 86.9531 22.3555 86.9531 21.5117V13.3203H90.0469V21.5352C90.0469 21.957 90.0938 22.3086 90.1875 22.5898C90.2891 22.8711 90.4258 23.1016 90.5977 23.2812C90.7773 23.4531 90.9844 23.5781 91.2188 23.6562C91.4609 23.7266 91.7188 23.7617 91.9922 23.7617C92.7422 23.7617 93.332 23.6133 93.7617 23.3164C94.1992 23.0117 94.5117 22.6055 94.6992 22.0977C94.8867 21.582 94.9805 21.0039 94.9805 20.3633Z" fill="white"/>
<path d="M103.535 7.98828V26H100.441V7.98828H103.535ZM111.48 13.3203L105.961 19.5195L102.973 22.5547L101.988 20.1523L104.297 17.2461L107.742 13.3203H111.48ZM108.316 26L104.391 20.0938L106.453 18.0898L111.902 26H108.316Z" fill="#FFD56F"/>
<path d="M64.622 41.6314C64.622 41.4246 64.576 41.2334 64.4839 41.0576C64.3969 40.8767 64.2153 40.7139 63.939 40.5691C63.6678 40.4192 63.2585 40.29 62.711 40.1814C62.2505 40.0832 61.8335 39.9669 61.46 39.8325C61.0916 39.6981 60.777 39.5353 60.516 39.344C60.2602 39.1527 60.0632 38.9279 59.9251 38.6694C59.7869 38.411 59.7179 38.1086 59.7179 37.7622C59.7179 37.4314 59.7895 37.1187 59.9328 36.824C60.0811 36.5294 60.2884 36.2683 60.5544 36.0409C60.8256 35.8134 61.1505 35.6351 61.5291 35.5059C61.9077 35.3766 62.3298 35.312 62.7954 35.312C63.4606 35.312 64.0285 35.4309 64.4992 35.6687C64.97 35.9065 65.3307 36.2244 65.5814 36.6224C65.8321 37.0153 65.9574 37.4521 65.9574 37.9328H64.5376C64.5376 37.7002 64.4685 37.4753 64.3304 37.2582C64.1974 37.0359 64.0004 36.8524 63.7394 36.7077C63.4836 36.563 63.1689 36.4906 62.7954 36.4906C62.4015 36.4906 62.0817 36.5526 61.8361 36.6767C61.5956 36.7956 61.4191 36.9481 61.3065 37.1342C61.1991 37.3203 61.1454 37.5167 61.1454 37.7235C61.1454 37.8785 61.171 38.0181 61.2221 38.1422C61.2784 38.2611 61.3756 38.3722 61.5138 38.4756C61.6519 38.5738 61.8463 38.6668 62.097 38.7547C62.3477 38.8426 62.6675 38.9305 63.0564 39.0183C63.7369 39.1734 64.2971 39.3595 64.7372 39.5766C65.1772 39.7937 65.5046 40.0599 65.7195 40.3753C65.9344 40.6906 66.0419 41.0731 66.0419 41.5228C66.0419 41.8898 65.9651 42.2258 65.8116 42.5308C65.6632 42.8358 65.4458 43.0994 65.1593 43.3217C64.8779 43.5388 64.5402 43.7094 64.1462 43.8335C63.7573 43.9524 63.3199 44.0118 62.8338 44.0118C62.1022 44.0118 61.4831 43.88 60.9765 43.6164C60.47 43.3527 60.0863 43.0116 59.8253 42.5929C59.5644 42.1742 59.4339 41.7322 59.4339 41.267H60.8614C60.8819 41.6598 60.9944 41.9726 61.1991 42.2052C61.4038 42.4326 61.6545 42.5954 61.9512 42.6937C62.248 42.7867 62.5422 42.8332 62.8338 42.8332C63.2227 42.8332 63.5476 42.7815 63.8085 42.6782C64.0746 42.5748 64.2767 42.4326 64.4148 42.2517C64.553 42.0708 64.622 41.864 64.622 41.6314Z" fill="white"/>
<path d="M69.3267 31.9468V43.8567H67.9068V31.9468H69.3267ZM68.989 39.344L68.398 39.3207C68.4031 38.747 68.4876 38.2171 68.6513 37.7312C68.815 37.2401 69.0453 36.8137 69.342 36.4518C69.6388 36.09 69.9918 35.8108 70.4011 35.6144C70.8156 35.4128 71.2735 35.312 71.7749 35.312C72.1842 35.312 72.5526 35.3689 72.8801 35.4826C73.2075 35.5911 73.4864 35.7669 73.7166 36.0099C73.952 36.2528 74.1311 36.5681 74.2539 36.9558C74.3767 37.3383 74.4381 37.8062 74.4381 38.3593V43.8567H73.0105V38.3438C73.0105 37.9044 72.9466 37.5529 72.8187 37.2892C72.6908 37.0204 72.504 36.8266 72.2584 36.7077C72.0128 36.5836 71.711 36.5216 71.3528 36.5216C70.9998 36.5216 70.6774 36.5966 70.3858 36.7465C70.0993 36.8964 69.8511 37.1031 69.6413 37.3668C69.4367 37.6304 69.2755 37.9328 69.1578 38.274C69.0453 38.61 68.989 38.9667 68.989 39.344Z" fill="white"/>
<path d="M76.1879 39.755V39.5766C76.1879 38.9718 76.2749 38.411 76.4488 37.894C76.6228 37.3719 76.8735 36.9196 77.201 36.5371C77.5284 36.1494 77.925 35.8496 78.3906 35.6377C78.8562 35.4206 79.378 35.312 79.9562 35.312C80.5395 35.312 81.0639 35.4206 81.5295 35.6377C82.0002 35.8496 82.3993 36.1494 82.7268 36.5371C83.0594 36.9196 83.3126 37.3719 83.4866 37.894C83.6606 38.411 83.7475 38.9718 83.7475 39.5766V39.755C83.7475 40.3598 83.6606 40.9206 83.4866 41.4375C83.3126 41.9545 83.0594 42.4068 82.7268 42.7945C82.3993 43.177 82.0028 43.4768 81.5372 43.6939C81.0767 43.9058 80.5548 44.0118 79.9716 44.0118C79.3883 44.0118 78.8638 43.9058 78.3982 43.6939C77.9326 43.4768 77.5335 43.177 77.201 42.7945C76.8735 42.4068 76.6228 41.9545 76.4488 41.4375C76.2749 40.9206 76.1879 40.3598 76.1879 39.755ZM77.6077 39.5766V39.755C77.6077 40.1737 77.6563 40.5691 77.7535 40.9413C77.8508 41.3083 77.9966 41.634 78.191 41.9183C78.3906 42.2026 78.6387 42.4274 78.9355 42.5929C79.2322 42.7531 79.5776 42.8332 79.9716 42.8332C80.3604 42.8332 80.7007 42.7531 80.9923 42.5929C81.2891 42.4274 81.5346 42.2026 81.7291 41.9183C81.9235 41.634 82.0693 41.3083 82.1665 40.9413C82.2689 40.5691 82.32 40.1737 82.32 39.755V39.5766C82.32 39.1631 82.2689 38.7728 82.1665 38.4058C82.0693 38.0336 81.9209 37.7054 81.7214 37.4211C81.527 37.1316 81.2814 36.9041 80.9846 36.7387C80.693 36.5733 80.3502 36.4906 79.9562 36.4906C79.5673 36.4906 79.2245 36.5733 78.9278 36.7387C78.6361 36.9041 78.3906 37.1316 78.191 37.4211C77.9966 37.7054 77.8508 38.0336 77.7535 38.4058C77.6563 38.7728 77.6077 39.1631 77.6077 39.5766Z" fill="white"/>
<path d="M86.9479 37.0799V47.0823H85.5204V35.4671H86.8251L86.9479 37.0799ZM92.5428 39.5921V39.755C92.5428 40.3649 92.4712 40.931 92.3279 41.453C92.1847 41.97 91.9749 42.4197 91.6986 42.8022C91.4274 43.1847 91.0923 43.482 90.6932 43.6939C90.2941 43.9058 89.8362 44.0118 89.3194 44.0118C88.7924 44.0118 88.3268 43.9239 87.9226 43.7482C87.5184 43.5724 87.1756 43.3166 86.8942 42.9806C86.6128 42.6446 86.3877 42.2414 86.2188 41.771C86.0551 41.3006 85.9425 40.7707 85.8811 40.1814V39.313C85.9425 38.6927 86.0576 38.137 86.2265 37.6459C86.3953 37.1548 86.6179 36.7361 86.8942 36.3898C87.1756 36.0383 87.5158 35.7721 87.9149 35.5911C88.314 35.4051 88.7745 35.312 89.2964 35.312C89.8183 35.312 90.2813 35.4154 90.6855 35.6222C91.0897 35.8238 91.43 36.1132 91.7063 36.4906C91.9826 36.8679 92.1898 37.3203 92.3279 37.8475C92.4712 38.3696 92.5428 38.9511 92.5428 39.5921ZM91.1153 39.755V39.5921C91.1153 39.1734 91.0718 38.7806 90.9848 38.4135C90.8979 38.0414 90.7623 37.7157 90.5781 37.4366C90.399 37.1523 90.1687 36.93 89.8873 36.7697C89.6059 36.6043 89.2708 36.5216 88.8819 36.5216C88.5238 36.5216 88.2117 36.5836 87.9456 36.7077C87.6847 36.8318 87.4621 36.9998 87.2779 37.2117C87.0937 37.4185 86.9428 37.6563 86.8251 37.9251C86.7125 38.1887 86.6281 38.4627 86.5718 38.747V40.7552C86.6742 41.117 86.8174 41.4582 87.0016 41.7787C87.1858 42.094 87.4314 42.3499 87.7384 42.5463C88.0454 42.7376 88.4317 42.8332 88.8973 42.8332C89.281 42.8332 89.6111 42.7531 89.8873 42.5929C90.1687 42.4274 90.399 42.2026 90.5781 41.9183C90.7623 41.634 90.8979 41.3083 90.9848 40.9413C91.0718 40.5691 91.1153 40.1737 91.1153 39.755Z" fill="white"/>
</g>
<defs>
<clipPath id="clip0_206_15">
<rect width="129.74" height="52" fill="white"/>
</clipPath>
<clipPath id="clip1_206_15">
<rect width="54" height="54" fill="white" transform="translate(0 -1)"/>
</clipPath>
</defs>
</svg>
